Radio-Canada-Condensed-Light.ufo
<glyph name="numbersign" format="2">
	<advance width="652"/>
	<unicode hex="0023"/>
	<outline>
		<contour>
			<point x="75" y="210" type="line"/>
			<point x="524" y="210" type="line"/>
			<point x="524" y="264" type="line"/>
			<point x="75" y="264" type="line"/>
		</contour>
		<contour>
			<point x="110" y="0" type="line"/>
			<point x="168" y="0" type="line"/>
			<point x="337" y="690" type="line"/>
			<point x="279" y="690" type="line"/>
		</contour>
		<contour>
			<point x="128" y="426" type="line"/>
			<point x="577" y="426" type="line"/>
			<point x="577" y="480" type="line"/>
			<point x="128" y="480" type="line"/>
		</contour>
		<contour>
			<point x="315" y="0" type="line"/>
			<point x="373" y="0" type="line"/>
			<point x="542" y="690" type="line"/>
			<point x="484" y="690" type="line"/>
		</contour>
	</outline>
</glyph>
<glyph name="dollar" format="2">
	<advance width="500"/>
	<unicode hex="0024"/>
	<outline>
		<contour>
			<point x="65" y="88" type="line"/>
			<point x="116" y="26"/>
			<point x="177" y="-8"/>
			<point x="260" y="-8" type="curve"/>
			<point x="407" y="-8"/>
			<point x="450" y="78"/>
			<point x="450" y="177" type="curve"/>
			<point x="450" y="256"/>
			<point x="385" y="347"/>
			<point x="274" y="387" type="curve" smooth="yes"/>
			<point x="177" y="422"/>
			<point x="150" y="466"/>
			<point x="150" y="522" type="curve"/>
			<point x="150" y="588"/>
			<point x="192" y="644"/>
			<point x="274" y="644" type="curve"/>
			<point x="327" y="644"/>
			<point x="348" y="626"/>
			<point x="388" y="586" type="curve"/>
			<point x="426" y="632" type="line"/>
			<point x="375" y="680"/>
			<point x="341" y="698"/>
			<point x="274" y="698" type="curve"/>
			<point x="159" y="698"/>
			<point x="91" y="615"/>
			<point x="91" y="519" type="curve"/>
			<point x="91" y="437"/>
			<point x="136" y="374"/>
			<point x="250" y="331" type="curve" smooth="yes"/>
			<point x="352" y="292"/>
			<point x="389" y="223"/>
			<point x="389" y="172" type="curve"/>
			<point x="389" y="111"/>
			<point x="376" y="46"/>
			<point x="260" y="46" type="curve"/>
			<point x="191" y="46"/>
			<point x="146" y="78"/>
			<point x="105" y="131" type="curve"/>
		</contour>
		<contour>
			<point x="244" y="-100" type="line"/>
			<point x="300" y="-100" type="line"/>
			<point x="300" y="344" type="line"/>
			<point x="244" y="362" type="line"/>
		</contour>
		<contour>
			<point x="244" y="362" type="line"/>
			<point x="300" y="344" type="line"/>
			<point x="300" y="790" type="line"/>
			<point x="244" y="790" type="line"/>
		</contour>
	</outline>
</glyph>
<glyph name="ampersand" format="2">
	<advance width="509"/>
	<unicode hex="0026"/>
	<outline>
		<contour>
			<point x="40" y="170" type="curve" smooth="yes"/>
			<point x="40" y="61"/>
			<point x="115" y="-8"/>
			<point x="229" y="-8" type="curve" smooth="yes"/>
			<point x="378" y="-8"/>
			<point x="426" y="146"/>
			<point x="476" y="296" type="curve"/>
			<point x="421" y="313" type="line"/>
			<point x="377" y="163"/>
			<point x="328" y="48"/>
			<point x="239" y="48" type="curve" smooth="yes"/>
			<point x="157" y="48"/>
			<point x="104" y="97"/>
			<point x="104" y="170" type="curve" smooth="yes"/>
			<point x="104" y="222"/>
			<point x="119" y="263"/>
			<point x="179" y="307" type="curve" smooth="yes"/>
			<point x="274" y="377" type="line" smooth="yes"/>
			<point x="340" y="426"/>
			<point x="382" y="478"/>
			<point x="382" y="550" type="curve" smooth="yes"/>
			<point x="382" y="624"/>
			<point x="336" y="698"/>
			<point x="247" y="698" type="curve" smooth="yes"/>
			<point x="158" y="698"/>
			<point x="110" y="633"/>
			<point x="110" y="549" type="curve" smooth="yes"/>
			<point x="110" y="468"/>
			<point x="134" y="421"/>
			<point x="178" y="360" type="curve" smooth="yes"/>
			<point x="438" y="0" type="line"/>
			<point x="504" y="0" type="line"/>
			<point x="232" y="390" type="line" smooth="yes"/>
			<point x="190" y="451"/>
			<point x="171" y="488"/>
			<point x="171" y="549" type="curve" smooth="yes"/>
			<point x="171" y="606"/>
			<point x="196" y="642"/>
			<point x="247" y="642" type="curve" smooth="yes"/>
			<point x="298" y="642"/>
			<point x="322" y="597"/>
			<point x="322" y="540" type="curve" smooth="yes"/>
			<point x="322" y="492"/>
			<point x="299" y="457"/>
			<point x="249" y="422" type="curve" smooth="yes"/>
			<point x="149" y="352" type="line" smooth="yes"/>
			<point x="73" y="299"/>
			<point x="40" y="246"/>
		</contour>
	</outline>
</glyph>
<glyph name="parenleft" format="2">
	<advance width="330"/>
	<unicode hex="0028"/>
	<outline>
		<contour>
			<point x="90" y="318" type="curve" smooth="yes"/>
			<point x="90" y="96"/>
			<point x="187" y="-59"/>
			<point x="317" y="-179" type="curve"/>
			<point x="345" y="-145" type="line"/>
			<point x="231" y="-34"/>
			<point x="146" y="118"/>
			<point x="146" y="318" type="curve" smooth="yes"/>
			<point x="146" y="518"/>
			<point x="231" y="669"/>
			<point x="345" y="780" type="curve"/>
			<point x="317" y="814" type="line"/>
			<point x="187" y="694"/>
			<point x="90" y="540"/>
		</contour>
	</outline>
</glyph>
<glyph name="asterisk" format="2">
	<advance width="537"/>
	<unicode hex="002A"/>
	<outline>
		<contour>
			<point x="40" y="535" type="line"/>
			<point x="233" y="483" type="line"/>
			<point x="104" y="322" type="line"/>
			<point x="158" y="283" type="line"/>
			<point x="268" y="453" type="line"/>
			<point x="378" y="283" type="line"/>
			<point x="432" y="322" type="line"/>
			<point x="304" y="483" type="line"/>
			<point x="497" y="535" type="line"/>
			<point x="476" y="598" type="line"/>
			<point x="292" y="529" type="line"/>
			<point x="301" y="720" type="line"/>
			<point x="235" y="720" type="line"/>
			<point x="245" y="529" type="line"/>
			<point x="61" y="598" type="line"/>
		</contour>
	</outline>
</glyph>
<glyph name="slash" format="2">
	<advance width="308"/>
	<unicode hex="002F"/>
	<outline>
		<contour>
			<point x="0" y="-30" type="line"/>
			<point x="58" y="-30" type="line"/>
			<point x="308" y="720" type="line"/>
			<point x="250" y="720" type="line"/>
		</contour>
	</outline>
</glyph>
<glyph name="nine" format="2">
	<advance width="500"/>
	<unicode hex="0039"/>
	<outline>
		<contour>
			<point x="50" y="465" type="curve"/>
			<point x="50" y="338"/>
			<point x="122" y="256"/>
			<point x="237" y="256" type="curve"/>
			<point x="308" y="256"/>
			<point x="372" y="292"/>
			<point x="400" y="351" type="curve"/>
			<point x="400" y="416" type="line"/>
			<point x="359" y="340"/>
			<point x="310" y="311"/>
			<point x="241" y="311" type="curve"/>
			<point x="158" y="311"/>
			<point x="115" y="375"/>
			<point x="115" y="468" type="curve"/>
			<point x="115" y="568"/>
			<point x="160" y="642"/>
			<point x="244" y="642" type="curve"/>
			<point x="342" y="642"/>
			<point x="387" y="554"/>
			<point x="387" y="368" type="curve" smooth="yes"/>
			<point x="387" y="151"/>
			<point x="317" y="48"/>
			<point x="220" y="48" type="curve"/>
			<point x="174" y="48"/>
			<point x="144" y="59"/>
			<point x="108" y="85" type="curve"/>
			<point x="79" y="36" type="line"/>
			<point x="125" y="4"/>
			<point x="171" y="-8"/>
			<point x="220" y="-8" type="curve"/>
			<point x="353" y="-8"/>
			<point x="450" y="124"/>
			<point x="450" y="368" type="curve" smooth="yes"/>
			<point x="450" y="588"/>
			<point x="375" y="698"/>
			<point x="249" y="698" type="curve"/>
			<point x="129" y="698"/>
			<point x="50" y="597"/>
		</contour>
	</outline>
</glyph>
<glyph name="less" format="2">
	<advance width="500"/>
	<unicode hex="003C"/>
	<outline>
		<contour>
			<point x="80" y="264" type="line"/>
			<point x="420" y="62" type="line"/>
			<point x="420" y="125" type="line"/>
			<point x="116" y="306" type="line"/>
			<point x="80" y="306" type="line"/>
		</contour>
		<contour>
			<point x="80" y="277" type="line"/>
			<point x="116" y="277" type="line"/>
			<point x="420" y="457" type="line"/>
			<point x="420" y="518" type="line"/>
			<point x="80" y="316" type="line"/>
		</contour>
	</outline>
</glyph>
<glyph name="A" format="2">
	<advance width="490"/>
	<unicode hex="0041"/>
	<anchor x="240" y="690" name="top"/>
	<anchor x="247" y="0" name="bottom"/>
	<anchor x="410" y="0" name="ogonek"/>
	<outline>
		<contour>
			<point x="15" y="0" type="line"/>
			<point x="77" y="0" type="line"/>
			<point x="255" y="654" type="line"/>
			<point x="253" y="690" type="line"/>
			<point x="216" y="690" type="line"/>
		</contour>
		<contour>
			<point x="119" y="226" type="line"/>
			<point x="363" y="226" type="line"/>
			<point x="363" y="280" type="line"/>
			<point x="119" y="280" type="line"/>
		</contour>
		<contour>
			<point x="229" y="654" type="line"/>
			<point x="410" y="0" type="line"/>
			<point x="475" y="0" type="line"/>
			<point x="268" y="690" type="line"/>
			<point x="227" y="690" type="line"/>
		</contour>
	</outline>
</glyph>
<glyph name="C" format="2">
	<advance width="483"/>
	<unicode hex="0043"/>
	<anchor x="268" y="690" name="top"/>
	<anchor x="268" y="0" name="bottom"/>
	<outline>
		<contour>
			<point x="45" y="345" type="curve"/>
			<point x="45" y="112"/>
			<point x="125" y="-8"/>
			<point x="283" y="-8" type="curve"/>
			<point x="342" y="-8"/>
			<point x="411" y="27"/>
			<point x="447" y="87" type="curve"/>
			<point x="407" y="121" type="line"/>
			<point x="375" y="76"/>
			<point x="327" y="49"/>
			<point x="283" y="49" type="curve"/>
			<point x="167" y="49"/>
			<point x="109" y="148"/>
			<point x="109" y="345" type="curve"/>
			<point x="109" y="542"/>
			<point x="155" y="641"/>
			<point x="280" y="641" type="curve" smooth="yes"/>
			<point x="315" y="641"/>
			<point x="348" y="627"/>
			<point x="384" y="589" type="curve"/>
			<point x="424" y="629" type="line"/>
			<point x="387" y="675"/>
			<point x="333" y="698"/>
			<point x="278" y="698" type="curve" smooth="yes"/>
			<point x="128" y="698"/>
			<point x="45" y="578"/>
		</contour>
	</outline>
</glyph>
<glyph name="D" format="2">
	<advance width="518"/>
	<unicode hex="0044"/>
	<anchor x="231" y="690" name="top"/>
	<outline>
		<contour>
			<point x="77" y="0" type="line"/>
			<point x="139" y="0" type="line"/>
			<point x="139" y="690" type="line"/>
			<point x="77" y="690" type="line"/>
		</contour>
		<contour>
			<point x="107" y="0" type="line"/>
			<point x="231" y="0" type="line" smooth="yes"/>
			<point x="363" y="0"/>
			<point x="473" y="112"/>
			<point x="473" y="345" type="curve" smooth="yes"/>
			<point x="473" y="578"/>
			<point x="363" y="690"/>
			<point x="231" y="690" type="curve" smooth="yes"/>
			<point x="107" y="690" type="line"/>
			<point x="107" y="636" type="line"/>
			<point x="226" y="636" type="line" smooth="yes"/>
			<point x="328" y="636"/>
			<point x="409" y="542"/>
			<point x="409" y="345" type="curve" smooth="yes"/>
			<point x="409" y="148"/>
			<point x="328" y="54"/>
			<point x="226" y="54" type="curve" smooth="yes"/>
			<point x="107" y="54" type="line"/>
		</contour>
	</outline>
</glyph>
<glyph name="F" format="2">
	<advance width="411"/>
	<unicode hex="0046"/>
	<outline>
		<contour>
			<point x="77" y="0" type="line"/>
			<point x="139" y="0" type="line"/>
			<point x="139" y="690" type="line"/>
			<point x="77" y="690" type="line"/>
		</contour>
		<contour>
			<point x="107" y="301" type="line"/>
			<point x="341" y="301" type="line"/>
			<point x="341" y="355" type="line"/>
			<point x="107" y="355" type="line"/>
		</contour>
		<contour>
			<point x="107" y="636" type="line"/>
			<point x="379" y="636" type="line"/>
			<point x="379" y="690" type="line"/>
			<point x="107" y="690" type="line"/>
		</contour>
	</outline>
</glyph>
<glyph name="H" format="2">
	<advance width="550"/>
	<unicode hex="0048"/>
	<anchor x="272" y="690" name="top"/>
	<outline>
		<contour>
			<point x="77" y="0" type="line"/>
			<point x="139" y="0" type="line"/>
			<point x="139" y="690" type="line"/>
			<point x="77" y="690" type="line"/>
		</contour>
		<contour>
			<point x="107" y="321" type="line"/>
			<point x="443" y="321" type="line"/>
			<point x="443" y="375" type="line"/>
			<point x="107" y="375" type="line"/>
		</contour>
		<contour>
			<point x="411" y="0" type="line"/>
			<point x="473" y="0" type="line"/>
			<point x="473" y="690" type="line"/>
			<point x="411" y="690" type="line"/>
		</contour>
	</outline>
</glyph>
<glyph name="I" format="2">
	<advance width="312"/>
	<unicode hex="0049"/>
	<anchor x="156" y="690" name="top"/>
	<anchor x="156" y="0" name="bottom"/>
	<anchor x="196" y="0" name="ogonek"/>
	<outline>
		<contour>
			<point x="60" y="0" type="line"/>
			<point x="252" y="0" type="line"/>
			<point x="252" y="50" type="line"/>
			<point x="60" y="50" type="line"/>
		</contour>
		<contour>
			<point x="60" y="640" type="line"/>
			<point x="252" y="640" type="line"/>
			<point x="252" y="690" type="line"/>
			<point x="60" y="690" type="line"/>
		</contour>
		<contour>
			<point x="125" y="0" type="line"/>
			<point x="187" y="0" type="line"/>
			<point x="187" y="690" type="line"/>
			<point x="125" y="690" type="line"/>
		</contour>
	</outline>
</glyph>
<glyph name="J" format="2">
	<advance width="398"/>
	<unicode hex="004A"/>
	<anchor x="217" y="690" name="top"/>
	<outline>
		<contour>
			<point x="32" y="82" type="line"/>
			<point x="70" y="25"/>
			<point x="116" y="-8"/>
			<point x="180" y="-8" type="curve"/>
			<point x="289" y="-8"/>
			<point x="329" y="63"/>
			<point x="329" y="205" type="curve" smooth="yes"/>
			<point x="329" y="690" type="line"/>
			<point x="267" y="690" type="line"/>
			<point x="267" y="210" type="line" smooth="yes"/>
			<point x="267" y="95"/>
			<point x="245" y="49"/>
			<point x="178" y="49" type="curve"/>
			<point x="131" y="49"/>
			<point x="104" y="82"/>
			<point x="75" y="119" type="curve"/>
		</contour>
		<contour>
			<point x="147" y="640" type="line"/>
			<point x="303" y="640" type="line"/>
			<point x="303" y="690" type="line"/>
			<point x="147" y="690" type="line"/>
		</contour>
	</outline>
</glyph>
<glyph name="L" format="2">
	<advance width="370"/>
	<unicode hex="004C"/>
	<anchor x="139" y="690" name="top"/>
	<anchor x="208" y="0" name="bottom"/>
	<anchor x="260" y="680" name="caron.alt"/>
	<outline>
		<contour>
			<point x="77" y="0" type="line"/>
			<point x="139" y="0" type="line"/>
			<point x="139" y="690" type="line"/>
			<point x="77" y="690" type="line"/>
		</contour>
		<contour>
			<point x="107" y="0" type="line"/>
			<point x="339" y="0" type="line"/>
			<point x="339" y="54" type="line"/>
			<point x="107" y="54" type="line"/>
		</contour>
	</outline>
</glyph>
<glyph name="O" format="2">
	<advance width="526"/>
	<unicode hex="004F"/>
	<anchor x="263" y="690" name="top"/>
	<anchor x="263" y="0" name="bottom"/>
	<anchor x="305" y="0" name="ogonek"/>
	<anchor x="307" y="690" name="horn"/>
	<outline>
		<contour>
			<point x="45" y="345" type="curve" smooth="yes"/>
			<point x="45" y="152"/>
			<point x="105" y="-8"/>
			<point x="263" y="-8" type="curve" smooth="yes"/>
			<point x="421" y="-8"/>
			<point x="481" y="152"/>
			<point x="481" y="345" type="curve" smooth="yes"/>
			<point x="481" y="538"/>
			<point x="421" y="698"/>
			<point x="263" y="698" type="curve" smooth="yes"/>
			<point x="105" y="698"/>
			<point x="45" y="538"/>
		</contour>
		<contour>
			<point x="109" y="345" type="curve" smooth="yes"/>
			<point x="109" y="502"/>
			<point x="138" y="641"/>
			<point x="263" y="641" type="curve" smooth="yes"/>
			<point x="388" y="641"/>
			<point x="417" y="502"/>
			<point x="417" y="345" type="curve" smooth="yes"/>
			<point x="417" y="188"/>
			<point x="388" y="49"/>
			<point x="263" y="49" type="curve" smooth="yes"/>
			<point x="138" y="49"/>
			<point x="109" y="188"/>
		</contour>
	</outline>
</glyph>
<glyph name="P" format="2">
	<advance width="477"/>
	<unicode hex="0050"/>
	<outline>
		<contour>
			<point x="77" y="0" type="line"/>
			<point x="139" y="0" type="line"/>
			<point x="139" y="690" type="line"/>
			<point x="77" y="690" type="line"/>
		</contour>
		<contour>
			<point x="107" y="250" type="line"/>
			<point x="208" y="250" type="line" smooth="yes"/>
			<point x="345" y="250"/>
			<point x="439" y="332"/>
			<point x="439" y="470" type="curve" smooth="yes"/>
			<point x="439" y="608"/>
			<point x="345" y="690"/>
			<point x="208" y="690" type="curve" smooth="yes"/>
			<point x="107" y="690" type="line"/>
			<point x="107" y="636" type="line"/>
			<point x="203" y="636" type="line" smooth="yes"/>
			<point x="313" y="636"/>
			<point x="375" y="577"/>
			<point x="375" y="470" type="curve" smooth="yes"/>
			<point x="375" y="363"/>
			<point x="313" y="304"/>
			<point x="203" y="304" type="curve" smooth="yes"/>
			<point x="107" y="304" type="line"/>
		</contour>
	</outline>
</glyph>
<glyph name="Q" format="2">
	<advance width="546"/>
	<unicode hex="0051"/>
	<outline>
		<contour>
			<point x="339" y="7" type="line"/>
			<point x="360" y="-83"/>
			<point x="405" y="-139"/>
			<point x="491" y="-150" type="curve"/>
			<point x="491" y="-87" type="line"/>
			<point x="439" y="-80"/>
			<point x="403" y="-40"/>
			<point x="389" y="29" type="curve"/>
		</contour>
		<contour>
			<point x="45" y="345" type="curve" smooth="yes"/>
			<point x="45" y="142"/>
			<point x="115" y="-8"/>
			<point x="273" y="-8" type="curve" smooth="yes"/>
			<point x="431" y="-8"/>
			<point x="501" y="142"/>
			<point x="501" y="345" type="curve" smooth="yes"/>
			<point x="501" y="548"/>
			<point x="431" y="698"/>
			<point x="273" y="698" type="curve" smooth="yes"/>
			<point x="115" y="698"/>
			<point x="45" y="548"/>
		</contour>
		<contour>
			<point x="109" y="345" type="curve" smooth="yes"/>
			<point x="109" y="512"/>
			<point x="148" y="641"/>
			<point x="273" y="641" type="curve" smooth="yes"/>
			<point x="398" y="641"/>
			<point x="437" y="512"/>
			<point x="437" y="345" type="curve" smooth="yes"/>
			<point x="437" y="178"/>
			<point x="398" y="49"/>
			<point x="273" y="49" type="curve" smooth="yes"/>
			<point x="148" y="49"/>
			<point x="109" y="178"/>
		</contour>
	</outline>
</glyph>
<glyph name="U" format="2">
	<advance width="490"/>
	<unicode hex="0055"/>
	<anchor x="247" y="690" name="top"/>
	<anchor x="245" y="0" name="bottom"/>
	<anchor x="252" y="0" name="ogonek"/>
	<anchor x="409" y="690" name="horn"/>
	<outline>
		<contour>
			<point x="69" y="203" type="line" smooth="yes"/>
			<point x="69" y="86"/>
			<point x="102" y="-8"/>
			<point x="245" y="-8" type="curve" smooth="yes"/>
			<point x="389" y="-8"/>
			<point x="421" y="86"/>
			<point x="421" y="203" type="curve" smooth="yes"/>
			<point x="421" y="690" type="line"/>
			<point x="359" y="690" type="line"/>
			<point x="359" y="208" type="line" smooth="yes"/>
			<point x="359" y="124"/>
			<point x="339" y="49"/>
			<point x="245" y="49" type="curve" smooth="yes"/>
			<point x="161" y="49"/>
			<point x="131" y="123"/>
			<point x="131" y="208" type="curve" smooth="yes"/>
			<point x="131" y="690" type="line"/>
			<point x="69" y="690" type="line"/>
		</contour>
	</outline>
</glyph>
<glyph name="W" format="2">
	<advance width="701"/>
	<unicode hex="0057"/>
	<anchor x="350" y="690" name="top"/>
	<outline>
		<contour>
			<point x="12" y="690" type="line"/>
			<point x="172" y="0" type="line"/>
			<point x="216" y="0" type="line"/>
			<point x="214" y="32" type="line"/>
			<point x="77" y="690" type="line"/>
		</contour>
		<contour>
			<point x="182" y="32" type="line"/>
			<point x="184" y="0" type="line"/>
			<point x="224" y="0" type="line"/>
			<point x="361" y="614" type="line"/>
			<point x="361" y="690" type="line"/>
			<point x="326" y="690" type="line"/>
		</contour>
		<contour>
			<point x="338" y="614" type="line"/>
			<point x="477" y="0" type="line"/>
			<point x="521" y="0" type="line"/>
			<point x="519" y="32" type="line"/>
			<point x="376" y="690" type="line"/>
			<point x="338" y="690" type="line"/>
		</contour>
		<contour>
			<point x="487" y="32" type="line"/>
			<point x="489" y="0" type="line"/>
			<point x="529" y="0" type="line"/>
			<point x="689" y="690" type="line"/>
			<point x="627" y="690" type="line"/>
		</contour>
	</outline>
</glyph>
<glyph name="X" format="2">
	<advance width="460"/>
	<unicode hex="0058"/>
	<outline>
		<contour>
			<point x="18" y="0" type="line"/>
			<point x="88" y="0" type="line"/>
			<point x="237" y="312" type="line"/>
			<point x="256" y="338" type="line"/>
			<point x="433" y="690" type="line"/>
			<point x="363" y="690" type="line"/>
			<point x="224" y="392" type="line"/>
			<point x="205" y="367" type="line"/>
		</contour>
		<contour>
			<point x="28" y="690" type="line"/>
			<point x="212" y="325" type="line"/>
			<point x="370" y="0" type="line"/>
			<point x="443" y="0" type="line"/>
			<point x="250" y="380" type="line"/>
			<point x="101" y="690" type="line"/>
		</contour>
	</outline>
</glyph>
<glyph name="Y" format="2">
	<advance width="419"/>
	<unicode hex="0059"/>
	<anchor x="210" y="690" name="top"/>
	<outline>
		<contour>
			<point x="9" y="690" type="line"/>
			<point x="184" y="280" type="line"/>
			<point x="228" y="280" type="line"/>
			<point x="226" y="314" type="line"/>
			<point x="77" y="690" type="line"/>
		</contour>
		<contour>
			<point x="179" y="0" type="line"/>
			<point x="241" y="0" type="line"/>
			<point x="241" y="310" type="line"/>
			<point x="179" y="310" type="line"/>
		</contour>
		<contour>
			<point x="194" y="314" type="line"/>
			<point x="196" y="280" type="line"/>
			<point x="236" y="280" type="line"/>
			<point x="411" y="690" type="line"/>
			<point x="347" y="690" type="line"/>
		</contour>
	</outline>
</glyph>
<glyph name="Z" format="2">
	<advance width="441"/>
	<unicode hex="005A"/>
	<anchor x="230" y="690" name="top"/>
	<outline>
		<contour>
			<point x="47" y="42" type="line"/>
			<point x="83" y="0" type="line"/>
			<point x="386" y="648" type="line"/>
			<point x="350" y="690" type="line"/>
		</contour>
		<contour>
			<point x="47" y="0" type="line"/>
			<point x="394" y="0" type="line"/>
			<point x="394" y="54" type="line"/>
			<point x="62" y="54" type="line"/>
			<point x="47" y="42" type="line"/>
		</contour>
		<contour>
			<point x="55" y="636" type="line"/>
			<point x="369" y="636" type="line"/>
			<point x="386" y="648" type="line"/>
			<point x="386" y="690" type="line"/>
			<point x="55" y="690" type="line"/>
		</contour>
	</outline>
</glyph>
<glyph name="bracketright" format="2">
	<advance width="295"/>
	<unicode hex="005D"/>
	<outline>
		<contour>
			<point x="-15" y="-185" type="line"/>
			<point x="159" y="-185" type="line"/>
			<point x="159" y="-135" type="line"/>
			<point x="-15" y="-135" type="line"/>
		</contour>
		<contour>
			<point x="-15" y="750" type="line"/>
			<point x="159" y="750" type="line"/>
			<point x="159" y="800" type="line"/>
			<point x="-15" y="800" type="line"/>
		</contour>
		<contour>
			<point x="129" y="-185" type="line"/>
			<point x="185" y="-185" type="line"/>
			<point x="185" y="800" type="line"/>
			<point x="129" y="800" type="line"/>
		</contour>
	</outline>
</glyph>
<glyph name="d" format="2">
	<advance width="437"/>
	<unicode hex="0064"/>
	<anchor x="427" y="720" name="caron.alt"/>
	<outline>
		<contour>
			<point x="42" y="250" type="curve" smooth="yes"/>
			<point x="42" y="75"/>
			<point x="105" y="-10"/>
			<point x="195" y="-8" type="curve" smooth="yes"/>
			<point x="254" y="-7"/>
			<point x="295" y="29"/>
			<point x="319" y="77" type="curve"/>
			<point x="319" y="136" type="line"/>
			<point x="296" y="85"/>
			<point x="260" y="47"/>
			<point x="203" y="47" type="curve" smooth="yes"/>
			<point x="145" y="47"/>
			<point x="103" y="106"/>
			<point x="103" y="255" type="curve" smooth="yes"/>
			<point x="103" y="397"/>
			<point x="133" y="466"/>
			<point x="206" y="466" type="curve" smooth="yes"/>
			<point x="272" y="466"/>
			<point x="305" y="416"/>
			<point x="305" y="320" type="curve"/>
			<point x="332" y="330" type="line"/>
			<point x="332" y="451"/>
			<point x="289" y="518"/>
			<point x="202" y="518" type="curve" smooth="yes"/>
			<point x="103" y="518"/>
			<point x="42" y="427"/>
		</contour>
		<contour>
			<point x="320" y="0" type="line"/>
			<point x="376" y="0" type="line"/>
			<point x="370" y="39" type="line" smooth="yes"/>
			<point x="366" y="68"/>
			<point x="365" y="89"/>
			<point x="365" y="122" type="curve" smooth="yes"/>
			<point x="365" y="731" type="line"/>
			<point x="305" y="717" type="line"/>
			<point x="305" y="103" type="line"/>
		</contour>
	</outline>
</glyph>
<glyph name="e" format="2">
	<advance width="421"/>
	<unicode hex="0065"/>
	<anchor x="228" y="510" name="top"/>
	<anchor x="228" y="0" name="bottom"/>
	<anchor x="228" y="0" name="ogonek"/>
	<outline>
		<contour>
			<point x="43" y="255" type="curve" smooth="yes"/>
			<point x="43" y="81"/>
			<point x="111" y="-8"/>
			<point x="227" y="-8" type="curve" smooth="yes"/>
			<point x="267" y="-8"/>
			<point x="318" y="9"/>
			<point x="362" y="55" type="curve"/>
			<point x="329" y="94" type="line"/>
			<point x="295" y="62"/>
			<point x="260" y="47"/>
			<point x="226" y="47" type="curve" smooth="yes"/>
			<point x="141" y="47"/>
			<point x="104" y="111"/>
			<point x="104" y="255" type="curve" smooth="yes"/>
			<point x="104" y="384"/>
			<point x="133" y="463"/>
			<point x="223" y="463" type="curve" smooth="yes"/>
			<point x="294" y="463"/>
			<point x="322" y="391"/>
			<point x="322" y="270" type="curve"/>
			<point x="335" y="294" type="line"/>
			<point x="87" y="294" type="line"/>
			<point x="87" y="244" type="line"/>
			<point x="377" y="244" type="line"/>
			<point x="378" y="254"/>
			<point x="379" y="267"/>
			<point x="379" y="280" type="curve" smooth="yes"/>
			<point x="379" y="420"/>
			<point x="325" y="518"/>
			<point x="223" y="518" type="curve" smooth="yes"/>
			<point x="102" y="518"/>
			<point x="43" y="414"/>
		</contour>
	</outline>
</glyph>
<glyph name="f" format="2">
	<advance width="256"/>
	<unicode hex="0066"/>
	<outline>
		<contour>
			<point x="16" y="460" type="line"/>
			<point x="256" y="460" type="line"/>
			<point x="256" y="510" type="line"/>
			<point x="16" y="510" type="line"/>
		</contour>
		<contour>
			<point x="89" y="0" type="line"/>
			<point x="149" y="0" type="line"/>
			<point x="149" y="572" type="line" smooth="yes"/>
			<point x="149" y="649"/>
			<point x="162" y="674"/>
			<point x="198" y="674" type="curve"/>
			<point x="212" y="674"/>
			<point x="229" y="670"/>
			<point x="248" y="660" type="curve"/>
			<point x="270" y="705" type="line"/>
			<point x="251" y="720"/>
			<point x="216" y="728"/>
			<point x="193" y="728" type="curve"/>
			<point x="128" y="728"/>
			<point x="89" y="683"/>
			<point x="89" y="575" type="curve" smooth="yes"/>
		</contour>
	</outline>
</glyph>
<glyph name="g" format="2">
	<advance width="451"/>
	<unicode hex="0067"/>
	<anchor x="206" y="510" name="top"/>
	<outline>
		<contour>
			<point x="43" y="255" type="curve" smooth="yes"/>
			<point x="43" y="98"/>
			<point x="98" y="7"/>
			<point x="195" y="7" type="curve" smooth="yes"/>
			<point x="254" y="7"/>
			<point x="296" y="38"/>
			<point x="334" y="84" type="curve"/>
			<point x="334" y="131" type="line"/>
			<point x="292" y="84"/>
			<point x="258" y="62"/>
			<point x="203" y="62" type="curve" smooth="yes"/>
			<point x="138" y="62"/>
			<point x="104" y="129"/>
			<point x="104" y="260" type="curve" smooth="yes"/>
			<point x="104" y="393"/>
			<point x="131" y="466"/>
			<point x="211" y="466" type="curve" smooth="yes"/>
			<point x="288" y="466"/>
			<point x="319" y="413"/>
			<point x="319" y="310" type="curve"/>
			<point x="347" y="320" type="line"/>
			<point x="347" y="448"/>
			<point x="302" y="518"/>
			<point x="207" y="518" type="curve" smooth="yes"/>
			<point x="96" y="518"/>
			<point x="43" y="424"/>
		</contour>
		<contour>
			<point x="73" y="-147" type="line"/>
			<point x="112" y="-177"/>
			<point x="153" y="-193"/>
			<point x="215" y="-193" type="curve" smooth="yes"/>
			<point x="330" y="-193"/>
			<point x="379" y="-121"/>
			<point x="379" y="20" type="curve" smooth="yes"/>
			<point x="379" y="388" type="line"/>
			<point x="379" y="421"/>
			<point x="380" y="442"/>
			<point x="384" y="471" type="curve" smooth="yes"/>
			<point x="390" y="510" type="line"/>
			<point x="335" y="510" type="line"/>
			<point x="319" y="407" type="line"/>
			<point x="319" y="25" type="line" smooth="yes"/>
			<point x="319" y="-93"/>
			<point x="295" y="-138"/>
			<point x="204" y="-138" type="curve" smooth="yes"/>
			<point x="166" y="-138"/>
			<point x="131" y="-123"/>
			<point x="98" y="-98" type="curve"/>
		</contour>
	</outline>
</glyph>
<glyph name="h" format="2">
	<advance width="472"/>
	<unicode hex="0068"/>
	<anchor x="103" y="720" name="top"/>
	<outline>
		<contour>
			<point x="73" y="0" type="line"/>
			<point x="133" y="0" type="line"/>
			<point x="133" y="731" type="line"/>
			<point x="73" y="717" type="line"/>
		</contour>
		<contour>
			<point x="118" y="388" type="line"/>
			<point x="170" y="442"/>
			<point x="211" y="463"/>
			<point x="263" y="463" type="curve"/>
			<point x="316" y="463"/>
			<point x="343" y="426"/>
			<point x="343" y="330" type="curve" smooth="yes"/>
			<point x="343" y="0" type="line"/>
			<point x="403" y="0" type="line"/>
			<point x="403" y="341" type="line" smooth="yes"/>
			<point x="403" y="466"/>
			<point x="352" y="518"/>
			<point x="271" y="518" type="curve"/>
			<point x="222" y="518"/>
			<point x="164" y="494"/>
			<point x="118" y="437" type="curve"/>
		</contour>
	</outline>
</glyph>
<glyph name="k" format="2">
	<advance width="401"/>
	<unicode hex="006B"/>
	<anchor x="220" y="0" name="bottom"/>
	<outline>
		<contour>
			<point x="73" y="0" type="line"/>
			<point x="133" y="0" type="line"/>
			<point x="133" y="731" type="line"/>
			<point x="73" y="717" type="line"/>
		</contour>
		<contour>
			<point x="127" y="183" type="line"/>
			<point x="376" y="510" type="line"/>
			<point x="313" y="510" type="line"/>
			<point x="127" y="264" type="line"/>
		</contour>
		<contour>
			<point x="159" y="267" type="line"/>
			<point x="329" y="0" type="line"/>
			<point x="391" y="0" type="line"/>
			<point x="198" y="308" type="line"/>
		</contour>
	</outline>
</glyph>
<glyph name="m" format="2">
	<advance width="696"/>
	<unicode hex="006D"/>
	<outline>
		<contour>
			<point x="61" y="510" type="line"/>
			<point x="67" y="471" type="line" smooth="yes"/>
			<point x="71" y="442"/>
			<point x="72" y="421"/>
			<point x="72" y="388" type="curve" smooth="yes"/>
			<point x="72" y="0" type="line"/>
			<point x="132" y="0" type="line"/>
			<point x="132" y="407" type="line"/>
			<point x="116" y="510" type="line"/>
		</contour>
		<contour>
			<point x="117" y="372" type="line"/>
			<point x="151" y="434"/>
			<point x="189" y="463"/>
			<point x="237" y="463" type="curve"/>
			<point x="297" y="463"/>
			<point x="319" y="423"/>
			<point x="319" y="327" type="curve" smooth="yes"/>
			<point x="319" y="0" type="line"/>
			<point x="379" y="0" type="line"/>
			<point x="379" y="335" type="line" smooth="yes"/>
			<point x="379" y="456"/>
			<point x="337" y="518"/>
			<point x="245" y="518" type="curve"/>
			<point x="196" y="518"/>
			<point x="143" y="484"/>
			<point x="114" y="427" type="curve"/>
		</contour>
		<contour>
			<point x="355" y="426" type="curve"/>
			<point x="362" y="372" type="line"/>
			<point x="398" y="435"/>
			<point x="444" y="463"/>
			<point x="485" y="463" type="curve"/>
			<point x="539" y="463"/>
			<point x="566" y="420"/>
			<point x="566" y="327" type="curve" smooth="yes"/>
			<point x="566" y="0" type="line"/>
			<point x="626" y="0" type="line"/>
			<point x="626" y="332" type="line" smooth="yes"/>
			<point x="626" y="459"/>
			<point x="589" y="518"/>
			<point x="493" y="518" type="curve"/>
			<point x="436" y="518"/>
			<point x="386" y="483"/>
		</contour>
	</outline>
</glyph>
<glyph name="t" format="2">
	<advance width="300"/>
	<unicode hex="0074"/>
	<anchor x="186" y="0" name="bottom"/>
	<anchor x="303" y="720" name="caron.alt"/>
	<outline>
		<contour>
			<point x="16" y="460" type="line"/>
			<point x="268" y="460" type="line"/>
			<point x="268" y="510" type="line"/>
			<point x="16" y="510" type="line"/>
		</contour>
		<contour>
			<point x="89" y="135" type="line" smooth="yes"/>
			<point x="89" y="44"/>
			<point x="121" y="-8"/>
			<point x="200" y="-8" type="curve"/>
			<point x="229" y="-8"/>
			<point x="253" y="0"/>
			<point x="278" y="13" type="curve"/>
			<point x="264" y="59" type="line"/>
			<point x="243" y="51"/>
			<point x="230" y="47"/>
			<point x="206" y="47" type="curve"/>
			<point x="160" y="47"/>
			<point x="149" y="73"/>
			<point x="149" y="138" type="curve" smooth="yes"/>
			<point x="149" y="654" type="line"/>
			<point x="89" y="640" type="line"/>
		</contour>
	</outline>
</glyph>
<glyph name="u" format="2">
	<advance width="454"/>
	<unicode hex="0075"/>
	<anchor x="230" y="510" name="top"/>
	<anchor x="202" y="0" name="bottom"/>
	<anchor x="382" y="0" name="ogonek"/>
	<anchor x="377" y="510" name="horn"/>
	<outline>
		<contour>
			<point x="69" y="175" type="line" smooth="yes"/>
			<point x="69" y="32"/>
			<point x="127" y="-8"/>
			<point x="206" y="-8" type="curve" smooth="yes"/>
			<point x="266" y="-8"/>
			<point x="315" y="27"/>
			<point x="341" y="81" type="curve"/>
			<point x="333" y="136" type="line"/>
			<point x="307" y="79"/>
			<point x="275" y="47"/>
			<point x="214" y="47" type="curve" smooth="yes"/>
			<point x="164" y="47"/>
			<point x="129" y="80"/>
			<point x="129" y="180" type="curve" smooth="yes"/>
			<point x="129" y="510" type="line"/>
			<point x="69" y="510" type="line"/>
		</contour>
		<contour>
			<point x="339" y="0" type="line"/>
			<point x="394" y="0" type="line"/>
			<point x="388" y="39" type="line" smooth="yes"/>
			<point x="384" y="68"/>
			<point x="383" y="89"/>
			<point x="383" y="122" type="curve" smooth="yes"/>
			<point x="383" y="510" type="line"/>
			<point x="323" y="510" type="line"/>
			<point x="323" y="103" type="line"/>
		</contour>
	</outline>
</glyph>
<glyph name="v" format="2">
	<advance width="370"/>
	<unicode hex="0076"/>
	<outline>
		<contour>
			<point x="7" y="510" type="line"/>
			<point x="159" y="0" type="line"/>
			<point x="201" y="0" type="line"/>
			<point x="200" y="27" type="line"/>
			<point x="72" y="510" type="line"/>
		</contour>
		<contour>
			<point x="176" y="27" type="line"/>
			<point x="176" y="0" type="line"/>
			<point x="211" y="0" type="line"/>
			<point x="363" y="510" type="line"/>
			<point x="301" y="510" type="line"/>
		</contour>
	</outline>
</glyph>
<glyph name="w" format="2">
	<advance width="573"/>
	<unicode hex="0077"/>
	<anchor x="286" y="510" name="top"/>
	<outline>
		<contour>
			<point x="10" y="510" type="line"/>
			<point x="147" y="0" type="line"/>
			<point x="188" y="0" type="line"/>
			<point x="186" y="21" type="line"/>
			<point x="73" y="510" type="line"/>
		</contour>
		<contour>
			<point x="164" y="21" type="line"/>
			<point x="166" y="0" type="line"/>
			<point x="199" y="0" type="line"/>
			<point x="290" y="437" type="line"/>
			<point x="290" y="510" type="line"/>
			<point x="264" y="510" type="line"/>
		</contour>
		<contour>
			<point x="282" y="437" type="line"/>
			<point x="373" y="0" type="line"/>
			<point x="414" y="0" type="line"/>
			<point x="412" y="21" type="line"/>
			<point x="311" y="510" type="line"/>
			<point x="282" y="510" type="line"/>
		</contour>
		<contour>
			<point x="390" y="21" type="line"/>
			<point x="392" y="0" type="line"/>
			<point x="425" y="0" type="line"/>
			<point x="562" y="510" type="line"/>
			<point x="502" y="510" type="line"/>
		</contour>
	</outline>
</glyph>
<glyph name="z" format="2">
	<advance width="371"/>
	<unicode hex="007A"/>
	<anchor x="185" y="510" name="top"/>
	<outline>
		<contour>
			<point x="39" y="40" type="line"/>
			<point x="76" y="0" type="line"/>
			<point x="324" y="470" type="line"/>
			<point x="289" y="510" type="line"/>
		</contour>
		<contour>
			<point x="39" y="0" type="line"/>
			<point x="332" y="0" type="line"/>
			<point x="332" y="50" type="line"/>
			<point x="54" y="50" type="line"/>
			<point x="39" y="40" type="line"/>
		</contour>
		<contour>
			<point x="47" y="460" type="line"/>
			<point x="307" y="460" type="line"/>
			<point x="324" y="470" type="line"/>
			<point x="324" y="510" type="line"/>
			<point x="47" y="510" type="line"/>
		</contour>
	</outline>
</glyph>
<glyph name="sterling" format="2">
	<advance width="500"/>
	<unicode hex="00A3"/>
	<outline>
		<contour>
			<point x="70" y="0" type="line"/>
			<point x="430" y="0" type="line"/>
			<point x="430" y="56" type="line"/>
			<point x="70" y="56" type="line"/>
		</contour>
		<contour>
			<point x="70" y="10" type="line"/>
			<point x="190" y="60"/>
			<point x="245" y="160"/>
			<point x="245" y="260" type="curve" smooth="yes"/>
			<point x="245" y="340"/>
			<point x="201" y="437"/>
			<point x="201" y="507" type="curve" smooth="yes"/>
			<point x="201" y="591"/>
			<point x="226" y="641"/>
			<point x="282" y="641" type="curve" smooth="yes"/>
			<point x="334" y="641"/>
			<point x="361" y="614"/>
			<point x="379" y="571" type="curve"/>
			<point x="426" y="603" type="line"/>
			<point x="399" y="662"/>
			<point x="351" y="698"/>
			<point x="282" y="698" type="curve" smooth="yes"/>
			<point x="192" y="698"/>
			<point x="139" y="629"/>
			<point x="139" y="512" type="curve" smooth="yes"/>
			<point x="139" y="437"/>
			<point x="185" y="340"/>
			<point x="185" y="260" type="curve" smooth="yes"/>
			<point x="185" y="204"/>
			<point x="160" y="110"/>
			<point x="70" y="60" type="curve"/>
		</contour>
		<contour>
			<point x="79" y="306" type="line"/>
			<point x="357" y="306" type="line"/>
			<point x="357" y="360" type="line"/>
			<point x="79" y="360" type="line"/>
		</contour>
	</outline>
</glyph>
<glyph name="currency" format="2">
	<advance width="600"/>
	<unicode hex="00A4"/>
	<outline>
		<contour>
			<point x="80" y="345" type="curve" smooth="yes"/>
			<point x="80" y="196"/>
			<point x="172" y="110"/>
			<point x="300" y="110" type="curve" smooth="yes"/>
			<point x="428" y="110"/>
			<point x="520" y="196"/>
			<point x="520" y="345" type="curve" smooth="yes"/>
			<point x="520" y="494"/>
			<point x="428" y="580"/>
			<point x="300" y="580" type="curve" smooth="yes"/>
			<point x="172" y="580"/>
			<point x="80" y="494"/>
		</contour>
		<contour>
			<point x="140" y="345" type="curve" smooth="yes"/>
			<point x="140" y="459"/>
			<point x="199" y="525"/>
			<point x="300" y="525" type="curve" smooth="yes"/>
			<point x="401" y="525"/>
			<point x="460" y="459"/>
			<point x="460" y="345" type="curve" smooth="yes"/>
			<point x="460" y="231"/>
			<point x="401" y="165"/>
			<point x="300" y="165" type="curve" smooth="yes"/>
			<point x="199" y="165"/>
			<point x="140" y="231"/>
		</contour>
		<contour>
			<point x="41" y="129" type="line"/>
			<point x="84" y="86" type="line"/>
			<point x="169" y="171" type="line"/>
			<point x="126" y="214" type="line"/>
		</contour>
		<contour>
			<point x="431" y="171" type="line"/>
			<point x="516" y="86" type="line"/>
			<point x="559" y="129" type="line"/>
			<point x="474" y="214" type="line"/>
		</contour>
		<contour>
			<point x="41" y="561" type="line"/>
			<point x="126" y="476" type="line"/>
			<point x="169" y="519" type="line"/>
			<point x="84" y="604" type="line"/>
		</contour>
		<contour>
			<point x="431" y="519" type="line"/>
			<point x="474" y="476" type="line"/>
			<point x="559" y="561" type="line"/>
			<point x="516" y="604" type="line"/>
		</contour>
	</outline>
</glyph>
<glyph name="section" format="2">
	<advance width="496"/>
	<unicode hex="00A7"/>
	<outline>
		<contour>
			<point x="57" y="-117" type="line"/>
			<point x="108" y="-165"/>
			<point x="132" y="-193"/>
			<point x="219" y="-193" type="curve" smooth="yes"/>
			<point x="311" y="-193"/>
			<point x="387" y="-116"/>
			<point x="387" y="-25" type="curve" smooth="yes"/>
			<point x="387" y="53"/>
			<point x="344" y="106"/>
			<point x="243" y="154" type="curve" smooth="yes"/>
			<point x="128" y="209"/>
			<point x="114" y="246"/>
			<point x="114" y="303" type="curve" smooth="yes"/>
			<point x="114" y="356"/>
			<point x="136" y="414"/>
			<point x="216" y="414" type="curve"/>
			<point x="152" y="453" type="line"/>
			<point x="77" y="425"/>
			<point x="53" y="369"/>
			<point x="53" y="298" type="curve" smooth="yes"/>
			<point x="53" y="213"/>
			<point x="98" y="160"/>
			<point x="219" y="98" type="curve" smooth="yes"/>
			<point x="303" y="55"/>
			<point x="328" y="24"/>
			<point x="328" y="-28" type="curve" smooth="yes"/>
			<point x="328" y="-89"/>
			<point x="278" y="-139"/>
			<point x="219" y="-139" type="curve" smooth="yes"/>
			<point x="146" y="-139"/>
			<point x="135" y="-111"/>
			<point x="95" y="-71" type="curve"/>
		</contour>
		<contour>
			<point x="109" y="530" type="curve" smooth="yes"/>
			<point x="109" y="452"/>
			<point x="153" y="406"/>
			<point x="253" y="351" type="curve" smooth="yes"/>
			<point x="337" y="305"/>
			<point x="382" y="259"/>
			<point x="382" y="202" type="curve" smooth="yes"/>
			<point x="382" y="149"/>
			<point x="360" y="105"/>
			<point x="280" y="91" type="curve"/>
			<point x="344" y="52" type="line"/>
			<point x="419" y="80"/>
			<point x="443" y="136"/>
			<point x="443" y="207" type="curve" smooth="yes"/>
			<point x="443" y="292"/>
			<point x="378" y="359"/>
			<point x="277" y="407" type="curve" smooth="yes"/>
			<point x="192" y="448"/>
			<point x="168" y="481"/>
			<point x="168" y="533" type="curve" smooth="yes"/>
			<point x="168" y="594"/>
			<point x="198" y="644"/>
			<point x="277" y="644" type="curve" smooth="yes"/>
			<point x="310" y="644"/>
			<point x="361" y="616"/>
			<point x="401" y="576" type="curve"/>
			<point x="439" y="622" type="line"/>
			<point x="388" y="670"/>
			<point x="324" y="698"/>
			<point x="277" y="698" type="curve" smooth="yes"/>
			<point x="165" y="698"/>
			<point x="109" y="621"/>
		</contour>
	</outline>
</glyph>
<glyph name="twosuperior" format="2">
	<advance width="400"/>
	<unicode hex="00B2"/>
	<outline>
		<contour>
			<point x="76" y="290" type="line"/>
			<point x="320" y="290" type="line"/>
			<point x="320" y="340" type="line"/>
			<point x="136" y="340" type="line"/>
			<point x="76" y="326" type="line"/>
		</contour>
		<contour>
			<point x="76" y="326" type="line"/>
			<point x="108" y="290" type="line"/>
			<point x="220" y="425" type="line" smooth="yes"/>
			<point x="264" y="478"/>
			<point x="306" y="533"/>
			<point x="306" y="578" type="curve" smooth="yes"/>
			<point x="306" y="655"/>
			<point x="262" y="698"/>
			<point x="197" y="698" type="curve" smooth="yes"/>
			<point x="155" y="698"/>
			<point x="112" y="674"/>
			<point x="68" y="628" type="curve"/>
			<point x="104" y="592" type="line"/>
			<point x="134" y="625"/>
			<point x="170" y="648"/>
			<point x="195" y="648" type="curve" smooth="yes"/>
			<point x="234" y="648"/>
			<point x="250" y="620"/>
			<point x="250" y="578" type="curve" smooth="yes"/>
			<point x="250" y="543"/>
			<point x="221" y="505"/>
			<point x="185" y="460" type="curve" smooth="yes"/>
		</contour>
	</outline>
</glyph>
<glyph name="paragraph" format="2">
	<advance width="616"/>
	<unicode hex="00B6"/>
	<outline>
		<contour>
			<point x="80" y="457" type="curve" smooth="yes"/>
			<point x="80" y="306"/>
			<point x="173" y="224"/>
			<point x="267" y="224" type="curve"/>
			<point x="300" y="224" type="line"/>
			<point x="300" y="-185" type="line"/>
			<point x="356" y="-185" type="line"/>
			<point x="356" y="690" type="line"/>
			<point x="267" y="690" type="line"/>
			<point x="173" y="690"/>
			<point x="80" y="608"/>
		</contour>
		<contour>
			<point x="440" y="-185" type="line"/>
			<point x="496" y="-185" type="line"/>
			<point x="496" y="690" type="line"/>
			<point x="440" y="690" type="line"/>
		</contour>
	</outline>
</glyph>
<glyph name="onesuperior" format="2">
	<advance width="370"/>
	<unicode hex="00B9"/>
	<outline>
		<contour>
			<point x="100" y="290" type="line"/>
			<point x="296" y="290" type="line"/>
			<point x="296" y="338" type="line"/>
			<point x="100" y="338" type="line"/>
		</contour>
		<contour>
			<point x="84" y="624" type="line"/>
			<point x="104" y="578" type="line"/>
			<point x="205" y="642" type="line"/>
			<point x="188" y="690" type="line"/>
		</contour>
		<contour>
			<point x="170" y="290" type="line"/>
			<point x="226" y="290" type="line"/>
			<point x="226" y="690" type="line"/>
			<point x="188" y="690" type="line"/>
			<point x="170" y="637" type="line"/>
		</contour>
	</outline>
</glyph>
<glyph name="onequarter" format="2">
	<advance width="712"/>
	<unicode hex="00BC"/>
	<outline>
		<component base="onesuperior" xOffset="-68"/>
		<component base="fraction" xOffset="103"/>
		<contour>
			<point x="322" y="149" type="line"/>
			<point x="354" y="111" type="line"/>
			<point x="529" y="400" type="line"/>
			<point x="478" y="400" type="line"/>
		</contour>
		<contour>
			<point x="322" y="111" type="line"/>
			<point x="605" y="111" type="line"/>
			<point x="605" y="160" type="line"/>
			<point x="363" y="160" type="line"/>
			<point x="322" y="149" type="line"/>
		</contour>
		<contour>
			<point x="492" y="0" type="line"/>
			<point x="548" y="0" type="line"/>
			<point x="548" y="400" type="line"/>
			<point x="492" y="400" type="line"/>
		</contour>
	</outline>
</glyph>
<glyph name="AE" format="2">
	<advance width="733"/>
	<unicode hex="00C6"/>
	<anchor x="433" y="690" name="top"/>
	<outline>
		<contour>
			<point x="5" y="0" type="line"/>
			<point x="67" y="0" type="line"/>
			<point x="346" y="645" type="line"/>
			<point x="344" y="690" type="line"/>
			<point x="304" y="690" type="line"/>
		</contour>
		<contour>
			<point x="142" y="226" type="line"/>
			<point x="395" y="226" type="line"/>
			<point x="395" y="280" type="line"/>
			<point x="142" y="280" type="line"/>
		</contour>
		<contour>
			<point x="370" y="0" type="line"/>
			<point x="432" y="0" type="line"/>
			<point x="432" y="690" type="line"/>
			<point x="370" y="690" type="line"/>
		</contour>
		<contour>
			<point x="400" y="0" type="line"/>
			<point x="678" y="0" type="line"/>
			<point x="678" y="54" type="line"/>
			<point x="400" y="54" type="line"/>
		</contour>
		<contour>
			<point x="400" y="322" type="line"/>
			<point x="627" y="322" type="line"/>
			<point x="627" y="374" type="line"/>
			<point x="400" y="374" type="line"/>
		</contour>
		<contour>
			<point x="335" y="636" type="line"/>
			<point x="673" y="636" type="line"/>
			<point x="673" y="690" type="line"/>
			<point x="335" y="690" type="line"/>
		</contour>
	</outline>
</glyph>
<glyph name="Oslash" format="2">
	<advance width="546"/>
	<unicode hex="00D8"/>
	<anchor x="273" y="690" name="top"/>
	<outline>
		<component base="O"/>
		<contour>
			<point x="36" y="26" type="line"/>
			<point x="75" y="-1" type="line"/>
			<point x="508" y="668" type="line"/>
			<point x="468" y="694" type="line"/>
		</contour>
	</outline>
</glyph>
<glyph name="Thorn" format="2">
	<advance width="451"/>
	<unicode hex="00DE"/>
	<outline>
		<contour>
			<point x="80" y="0" type="line"/>
			<point x="142" y="0" type="line"/>
			<point x="142" y="690" type="line"/>
			<point x="80" y="690" type="line"/>
		</contour>
		<contour>
			<point x="110" y="150" type="line"/>
			<point x="224" y="150" type="line" smooth="yes"/>
			<point x="327" y="150"/>
			<point x="411" y="223"/>
			<point x="411" y="345" type="curve" smooth="yes"/>
			<point x="411" y="467"/>
			<point x="327" y="540"/>
			<point x="224" y="540" type="curve" smooth="yes"/>
			<point x="110" y="540" type="line"/>
			<point x="110" y="486" type="line"/>
			<point x="219" y="486" type="line" smooth="yes"/>
			<point x="294" y="486"/>
			<point x="347" y="436"/>
			<point x="347" y="345" type="curve" smooth="yes"/>
			<point x="347" y="254"/>
			<point x="294" y="204"/>
			<point x="219" y="204" type="curve" smooth="yes"/>
			<point x="110" y="204" type="line"/>
		</contour>
	</outline>
</glyph>
<glyph name="divide" format="2">
	<advance width="500"/>
	<unicode hex="00F7"/>
	<outline>
		<contour>
			<point x="79" y="263" type="line"/>
			<point x="421" y="263" type="line"/>
			<point x="421" y="317" type="line"/>
			<point x="79" y="317" type="line"/>
		</contour>
		<contour>
			<point x="207" y="106" type="curve" smooth="yes"/>
			<point x="207" y="82"/>
			<point x="226" y="62"/>
			<point x="250" y="62" type="curve" smooth="yes"/>
			<point x="275" y="62"/>
			<point x="293" y="82"/>
			<point x="293" y="106" type="curve" smooth="yes"/>
			<point x="293" y="131"/>
			<point x="275" y="151"/>
			<point x="250" y="151" type="curve" smooth="yes"/>
			<point x="226" y="151"/>
			<point x="207" y="131"/>
		</contour>
		<contour>
			<point x="207" y="473" type="curve" smooth="yes"/>
			<point x="207" y="449"/>
			<point x="226" y="429"/>
			<point x="250" y="429" type="curve" smooth="yes"/>
			<point x="275" y="429"/>
			<point x="293" y="449"/>
			<point x="293" y="473" type="curve" smooth="yes"/>
			<point x="293" y="498"/>
			<point x="275" y="518"/>
			<point x="250" y="518" type="curve" smooth="yes"/>
			<point x="226" y="518"/>
			<point x="207" y="498"/>
		</contour>
	</outline>
</glyph>
<glyph name="dcroat" format="2">
	<advance width="476"/>
	<unicode hex="0111"/>
	<outline>
		<contour>
			<point x="55" y="250" type="curve" smooth="yes"/>
			<point x="55" y="75"/>
			<point x="120" y="-8"/>
			<point x="203" y="-8" type="curve" smooth="yes"/>
			<point x="268" y="-8"/>
			<point x="307" y="35"/>
			<point x="336" y="93" type="curve"/>
			<point x="336" y="144" type="line"/>
			<point x="303" y="83"/>
			<point x="272" y="47"/>
			<point x="211" y="47" type="curve" smooth="yes"/>
			<point x="160" y="47"/>
			<point x="116" y="106"/>
			<point x="116" y="255" type="curve" smooth="yes"/>
			<point x="116" y="407"/>
			<point x="158" y="466"/>
			<point x="223" y="466" type="curve" smooth="yes"/>
			<point x="301" y="466"/>
			<point x="321" y="413"/>
			<point x="321" y="310" type="curve"/>
			<point x="349" y="317" type="line"/>
			<point x="349" y="445"/>
			<point x="314" y="518"/>
			<point x="219" y="518" type="curve" smooth="yes"/>
			<point x="128" y="518"/>
			<point x="55" y="437"/>
		</contour>
		<contour>
			<point x="337" y="0" type="line"/>
			<point x="392" y="0" type="line"/>
			<point x="386" y="39" type="line" smooth="yes"/>
			<point x="382" y="68"/>
			<point x="381" y="89"/>
			<point x="381" y="122" type="curve" smooth="yes"/>
			<point x="381" y="731" type="line"/>
			<point x="321" y="717" type="line"/>
			<point x="321" y="120" type="line"/>
			<point x="321" y="103" type="line"/>
		</contour>
		<contour>
			<point x="211" y="585" type="line"/>
			<point x="456" y="585" type="line"/>
			<point x="456" y="635" type="line"/>
			<point x="211" y="635" type="line"/>
		</contour>
	</outline>
</glyph>
<glyph name="OE" format="2">
	<advance width="747"/>
	<unicode hex="0152"/>
	<outline>
		<contour>
			<point x="45" y="345" type="curve" smooth="yes"/>
			<point x="45" y="132"/>
			<point x="153" y="0"/>
			<point x="333" y="0" type="curve" smooth="yes"/>
			<point x="389" y="0" type="line"/>
			<point x="389" y="54" type="line"/>
			<point x="333" y="54" type="line" smooth="yes"/>
			<point x="186" y="54"/>
			<point x="109" y="168"/>
			<point x="109" y="345" type="curve" smooth="yes"/>
			<point x="109" y="522"/>
			<point x="186" y="636"/>
			<point x="333" y="636" type="curve" smooth="yes"/>
			<point x="389" y="636" type="line"/>
			<point x="389" y="690" type="line"/>
			<point x="333" y="690" type="line" smooth="yes"/>
			<point x="153" y="690"/>
			<point x="45" y="558"/>
		</contour>
		<contour>
			<point x="376" y="0" type="line"/>
			<point x="438" y="0" type="line"/>
			<point x="438" y="690" type="line"/>
			<point x="376" y="690" type="line"/>
		</contour>
		<contour>
			<point x="406" y="0" type="line"/>
			<point x="692" y="0" type="line"/>
			<point x="692" y="54" type="line"/>
			<point x="406" y="54" type="line"/>
		</contour>
		<contour>
			<point x="406" y="322" type="line"/>
			<point x="641" y="322" type="line"/>
			<point x="641" y="374" type="line"/>
			<point x="406" y="374" type="line"/>
		</contour>
		<contour>
			<point x="406" y="636" type="line"/>
			<point x="687" y="636" type="line"/>
			<point x="687" y="690" type="line"/>
			<point x="406" y="690" type="line"/>
		</contour>
	</outline>
</glyph>
<glyph name="Tbar" format="2">
	<advance width="454"/>
	<unicode hex="0166"/>
	<outline>
		<contour>
			<point x="30" y="636" type="line"/>
			<point x="424" y="636" type="line"/>
			<point x="424" y="690" type="line"/>
			<point x="30" y="690" type="line"/>
		</contour>
		<contour>
			<point x="196" y="0" type="line"/>
			<point x="258" y="0" type="line"/>
			<point x="258" y="690" type="line"/>
			<point x="196" y="690" type="line"/>
		</contour>
		<contour>
			<point x="96" y="306" type="line"/>
			<point x="358" y="306" type="line"/>
			<point x="358" y="360" type="line"/>
			<point x="96" y="360" type="line"/>
		</contour>
	</outline>
</glyph>
<glyph name="Nhookleft" format="2">
	<advance width="550"/>
	<unicode hex="019D"/>
	<outline>
		<contour>
			<point x="-32" y="-177" type="line"/>
			<point x="-12" y="-187"/>
			<point x="16" y="-193"/>
			<point x="38" y="-193" type="curve" smooth="yes"/>
			<point x="119" y="-193"/>
			<point x="172" y="-136"/>
			<point x="172" y="-48" type="curve" smooth="yes"/>
			<point x="172" y="690" type="line"/>
			<point x="110" y="690" type="line"/>
			<point x="110" y="-47" type="line" smooth="yes"/>
			<point x="110" y="-112"/>
			<point x="82" y="-138"/>
			<point x="36" y="-138" type="curve" smooth="yes"/>
			<point x="17" y="-138"/>
			<point x="-1" y="-134"/>
			<point x="-19" y="-126" type="curve"/>
		</contour>
		<contour>
			<point x="138" y="690" type="line"/>
			<point x="380" y="0" type="line"/>
			<point x="433" y="0" type="line"/>
			<point x="195" y="690" type="line"/>
		</contour>
		<contour>
			<point x="403" y="0" type="line"/>
			<point x="465" y="0" type="line"/>
			<point x="465" y="690" type="line"/>
			<point x="403" y="690" type="line"/>
		</contour>
	</outline>
</glyph>
<glyph name="tildecomb" format="2">
	<advance width="0"/>
	<unicode hex="0303"/>
	<anchor x="0" y="510" name="_top"/>
	<anchor x="0" y="685" name="top"/>
	<outline>
		<contour>
			<point x="-138" y="590" type="curve"/>
			<point x="-94" y="590" type="line"/>
			<point x="-88" y="635"/>
			<point x="-74" y="651"/>
			<point x="-56" y="651" type="curve" smooth="yes"/>
			<point x="-22" y="651"/>
			<point x="-4" y="585"/>
			<point x="54" y="585" type="curve"/>
			<point x="95" y="585"/>
			<point x="126" y="625"/>
			<point x="134" y="695" type="curve"/>
			<point x="90" y="695" type="line"/>
			<point x="84" y="650"/>
			<point x="70" y="634"/>
			<point x="53" y="634" type="curve" smooth="yes"/>
			<point x="17" y="634"/>
			<point x="0" y="700"/>
			<point x="-58" y="700" type="curve"/>
			<point x="-100" y="700"/>
			<point x="-130" y="660"/>
		</contour>
	</outline>
</glyph>
<glyph name="cedillacomb" format="2">
	<advance width="0"/>
	<unicode hex="0327"/>
	<anchor x="0" y="0" name="_bottom"/>
	<outline>
		<contour>
			<point x="-69" y="-224" type="line"/>
			<point x="-54" y="-224" type="line" smooth="yes"/>
			<point x="47" y="-224"/>
			<point x="80" y="-178"/>
			<point x="80" y="-136" type="curve" smooth="yes"/>
			<point x="80" y="-105"/>
			<point x="58" y="-73"/>
			<point x="10" y="-65" type="curve"/>
			<point x="24" y="9" type="line"/>
			<point x="-16" y="15" type="line"/>
			<point x="-38" y="-98" type="line"/>
			<point x="-15" y="-100" type="line" smooth="yes"/>
			<point x="16" y="-103"/>
			<point x="28" y="-119"/>
			<point x="28" y="-138" type="curve" smooth="yes"/>
			<point x="28" y="-163"/>
			<point x="10" y="-185"/>
			<point x="-60" y="-185" type="curve"/>
		</contour>
	</outline>
</glyph>
<glyph name="Omega" format="2">
	<advance width="596"/>
	<unicode hex="03A9"/>
	<outline>
		<contour>
			<point x="293" y="638" type="curve" smooth="yes"/>
			<point x="388" y="638"/>
			<point x="482" y="546"/>
			<point x="482" y="365" type="curve" smooth="yes"/>
			<point x="482" y="244"/>
			<point x="436" y="128"/>
			<point x="359" y="70" type="curve"/>
			<point x="359" y="0" type="line"/>
			<point x="546" y="0" type="line"/>
			<point x="546" y="56" type="line"/>
			<point x="382" y="56" type="line"/>
			<point x="359" y="10" type="line"/>
			<point x="486" y="80"/>
			<point x="546" y="230"/>
			<point x="546" y="365" type="curve" smooth="yes"/>
			<point x="546" y="584"/>
			<point x="419" y="698"/>
			<point x="293" y="698" type="curve" smooth="yes"/>
			<point x="167" y="698"/>
			<point x="50" y="584"/>
			<point x="50" y="365" type="curve" smooth="yes"/>
			<point x="50" y="230"/>
			<point x="110" y="80"/>
			<point x="237" y="10" type="curve"/>
			<point x="214" y="56" type="line"/>
			<point x="50" y="56" type="line"/>
			<point x="50" y="0" type="line"/>
			<point x="237" y="0" type="line"/>
			<point x="237" y="70" type="line"/>
			<point x="160" y="128"/>
			<point x="114" y="244"/>
			<point x="114" y="365" type="curve" smooth="yes"/>
			<point x="114" y="546"/>
			<point x="198" y="638"/>
		</contour>
	</outline>
</glyph>
<glyph name="mu" format="2">
	<advance width="511"/>
	<unicode hex="03BC"/>
	<outline>
		<contour>
			<point x="70" y="-185" type="line"/>
			<point x="130" y="-185" type="line"/>
			<point x="120" y="100" type="line"/>
			<point x="100" y="185" type="line"/>
			<point x="100" y="57"/>
			<point x="144" y="-8"/>
			<point x="240" y="-8" type="curve" smooth="yes"/>
			<point x="291" y="-8"/>
			<point x="336" y="35"/>
			<point x="369" y="93" type="curve"/>
			<point x="369" y="144" type="line"/>
			<point x="332" y="83"/>
			<point x="288" y="47"/>
			<point x="245" y="47" type="curve" smooth="yes"/>
			<point x="180" y="47"/>
			<point x="130" y="87"/>
			<point x="130" y="190" type="curve" smooth="yes"/>
			<point x="130" y="510" type="line"/>
			<point x="70" y="510" type="line"/>
		</contour>
		<contour>
			<point x="354" y="120" type="line"/>
			<point x="359" y="84" type="line"/>
			<point x="359" y="20"/>
			<point x="392" y="-8"/>
			<point x="433" y="-8" type="curve"/>
			<point x="446" y="-8"/>
			<point x="460" y="-5"/>
			<point x="471" y="0" type="curve"/>
			<point x="471" y="48" type="line"/>
			<point x="464" y="46"/>
			<point x="454" y="44"/>
			<point x="445" y="44" type="curve"/>
			<point x="427" y="44"/>
			<point x="414" y="53"/>
			<point x="414" y="81" type="curve"/>
			<point x="414" y="510" type="line"/>
			<point x="354" y="510" type="line"/>
		</contour>
	</outline>
</glyph>
<glyph name="perthousand" format="2">
	<advance width="1101"/>
	<unicode hex="2030"/>
	<outline>
		<contour>
			<point x="80" y="533" type="curve" smooth="yes"/>
			<point x="80" y="432"/>
			<point x="129" y="368"/>
			<point x="210" y="368" type="curve" smooth="yes"/>
			<point x="291" y="368"/>
			<point x="340" y="432"/>
			<point x="340" y="533" type="curve" smooth="yes"/>
			<point x="340" y="634"/>
			<point x="291" y="698"/>
			<point x="210" y="698" type="curve" smooth="yes"/>
			<point x="129" y="698"/>
			<point x="80" y="634"/>
		</contour>
		<contour>
			<point x="136" y="533" type="curve" smooth="yes"/>
			<point x="136" y="605"/>
			<point x="159" y="646"/>
			<point x="210" y="646" type="curve" smooth="yes"/>
			<point x="261" y="646"/>
			<point x="284" y="605"/>
			<point x="284" y="533" type="curve" smooth="yes"/>
			<point x="284" y="461"/>
			<point x="261" y="420"/>
			<point x="210" y="420" type="curve" smooth="yes"/>
			<point x="159" y="420"/>
			<point x="136" y="461"/>
		</contour>
		<contour>
			<point x="168" y="0" type="line"/>
			<point x="233" y="0" type="line"/>
			<point x="653" y="690" type="line"/>
			<point x="588" y="690" type="line"/>
		</contour>
		<contour>
			<point x="441" y="157" type="curve" smooth="yes"/>
			<point x="441" y="56"/>
			<point x="490" y="-8"/>
			<point x="571" y="-8" type="curve" smooth="yes"/>
			<point x="652" y="-8"/>
			<point x="701" y="56"/>
			<point x="701" y="157" type="curve" smooth="yes"/>
			<point x="701" y="258"/>
			<point x="652" y="322"/>
			<point x="571" y="322" type="curve" smooth="yes"/>
			<point x="490" y="322"/>
			<point x="441" y="258"/>
		</contour>
		<contour>
			<point x="497" y="157" type="curve" smooth="yes"/>
			<point x="497" y="229"/>
			<point x="520" y="270"/>
			<point x="571" y="270" type="curve" smooth="yes"/>
			<point x="622" y="270"/>
			<point x="645" y="229"/>
			<point x="645" y="157" type="curve" smooth="yes"/>
			<point x="645" y="85"/>
			<point x="622" y="44"/>
			<point x="571" y="44" type="curve" smooth="yes"/>
			<point x="520" y="44"/>
			<point x="497" y="85"/>
		</contour>
		<contour>
			<point x="761" y="157" type="curve" smooth="yes"/>
			<point x="761" y="56"/>
			<point x="810" y="-8"/>
			<point x="891" y="-8" type="curve" smooth="yes"/>
			<point x="972" y="-8"/>
			<point x="1021" y="56"/>
			<point x="1021" y="157" type="curve" smooth="yes"/>
			<point x="1021" y="258"/>
			<point x="972" y="322"/>
			<point x="891" y="322" type="curve" smooth="yes"/>
			<point x="810" y="322"/>
			<point x="761" y="258"/>
		</contour>
		<contour>
			<point x="817" y="157" type="curve" smooth="yes"/>
			<point x="817" y="229"/>
			<point x="840" y="270"/>
			<point x="891" y="270" type="curve" smooth="yes"/>
			<point x="942" y="270"/>
			<point x="965" y="229"/>
			<point x="965" y="157" type="curve" smooth="yes"/>
			<point x="965" y="85"/>
			<point x="942" y="44"/>
			<point x="891" y="44" type="curve" smooth="yes"/>
			<point x="840" y="44"/>
			<point x="817" y="85"/>
		</contour>
	</outline>
</glyph>
<glyph name="colonsign" format="2">
	<advance width="481"/>
	<unicode hex="20A1"/>
	<outline>
		<component base="C"/>
		<contour>
			<point x="121" y="-99" type="line"/>
			<point x="177" y="-99" type="line"/>
			<point x="277" y="782" type="line"/>
			<point x="221" y="782" type="line"/>
		</contour>
		<contour>
			<point x="231" y="-99" type="line"/>
			<point x="287" y="-99" type="line"/>
			<point x="387" y="782" type="line"/>
			<point x="331" y="782" type="line"/>
		</contour>
	</outline>
</glyph>
<glyph name="naira" format="2">
	<advance width="526"/>
	<unicode hex="20A6"/>
	<outline>
		<component base="N"/>
		<contour>
			<point x="10" y="290" type="line"/>
			<point x="516" y="290" type="line"/>
			<point x="516" y="340" type="line"/>
			<point x="10" y="340" type="line"/>
		</contour>
	</outline>
</glyph>
<glyph name="Euro" format="2">
	<advance width="500"/>
	<unicode hex="20AC"/>
	<outline>
		<contour>
			<point x="80" y="345" type="curve" smooth="yes"/>
			<point x="80" y="112"/>
			<point x="182" y="-8"/>
			<point x="311" y="-8" type="curve" smooth="yes"/>
			<point x="366" y="-8"/>
			<point x="428" y="26"/>
			<point x="481" y="91" type="curve"/>
			<point x="433" y="128" type="line"/>
			<point x="394" y="78"/>
			<point x="348" y="49"/>
			<point x="311" y="49" type="curve" smooth="yes"/>
			<point x="215" y="49"/>
			<point x="144" y="148"/>
			<point x="144" y="345" type="curve" smooth="yes"/>
			<point x="144" y="542"/>
			<point x="217" y="641"/>
			<point x="311" y="641" type="curve" smooth="yes"/>
			<point x="350" y="641"/>
			<point x="389" y="615"/>
			<point x="428" y="565" type="curve"/>
			<point x="476" y="602" type="line"/>
			<point x="423" y="667"/>
			<point x="368" y="698"/>
			<point x="311" y="698" type="curve" smooth="yes"/>
			<point x="184" y="698"/>
			<point x="80" y="578"/>
		</contour>
		<contour>
			<point x="40" y="231" type="line"/>
			<point x="340" y="231" type="line"/>
			<point x="340" y="285" type="line"/>
			<point x="40" y="285" type="line"/>
		</contour>
		<contour>
			<point x="40" y="405" type="line"/>
			<point x="340" y="405" type="line"/>
			<point x="340" y="459" type="line"/>
			<point x="40" y="459" type="line"/>
		</contour>
	</outline>
</glyph>
<glyph name="manat" format="2">
	<advance width="502"/>
	<unicode hex="20BC"/>
	<outline>
		<component base="U" xScale="-1" yScale="-1" xOffset="502" yOffset="690"/>
		<contour>
			<point x="219" y="0" type="line"/>
			<point x="275" y="0" type="line"/>
			<point x="275" y="835" type="line"/>
			<point x="219" y="835" type="line"/>
		</contour>
	</outline>
</glyph>
<glyph name="ruble" format="2">
	<advance width="482"/>
	<unicode hex="20BD"/>
	<outline>
		<component base="P"/>
		<contour>
			<point x="10" y="130" type="line"/>
			<point x="272" y="130" type="line"/>
			<point x="272" y="180" type="line"/>
			<point x="10" y="180" type="line"/>
		</contour>
		<contour>
			<point x="10" y="254" type="line"/>
			<point x="132" y="254" type="line"/>
			<point x="132" y="304" type="line"/>
			<point x="10" y="304" type="line"/>
		</contour>
	</outline>
</glyph>
<glyph name="numero" format="2">
	<advance width="900"/>
	<unicode hex="2116"/>
	<outline>
		<contour>
			<point x="526" y="490" type="curve" smooth="yes"/>
			<point x="526" y="360"/>
			<point x="577" y="282"/>
			<point x="664" y="282" type="curve" smooth="yes"/>
			<point x="751" y="282"/>
			<point x="802" y="360"/>
			<point x="802" y="490" type="curve" smooth="yes"/>
			<point x="802" y="620"/>
			<point x="751" y="698"/>
			<point x="664" y="698" type="curve" smooth="yes"/>
			<point x="577" y="698"/>
			<point x="526" y="620"/>
		</contour>
		<contour>
			<point x="582" y="490" type="curve" smooth="yes"/>
			<point x="582" y="590"/>
			<point x="607" y="648"/>
			<point x="664" y="648" type="curve" smooth="yes"/>
			<point x="721" y="648"/>
			<point x="746" y="590"/>
			<point x="746" y="490" type="curve" smooth="yes"/>
			<point x="746" y="390"/>
			<point x="721" y="332"/>
			<point x="664" y="332" type="curve" smooth="yes"/>
			<point x="607" y="332"/>
			<point x="582" y="390"/>
		</contour>
		<contour>
			<point x="534" y="135" type="line"/>
			<point x="794" y="135" type="line"/>
			<point x="794" y="185" type="line"/>
			<point x="534" y="185" type="line"/>
		</contour>
		<contour>
			<point x="110" y="0" type="line"/>
			<point x="172" y="0" type="line"/>
			<point x="172" y="690" type="line"/>
			<point x="110" y="690" type="line"/>
		</contour>
		<contour>
			<point x="134" y="690" type="line"/>
			<point x="371" y="0" type="line"/>
			<point x="431" y="0" type="line"/>
			<point x="195" y="690" type="line"/>
		</contour>
		<contour>
			<point x="394" y="0" type="line"/>
			<point x="456" y="0" type="line"/>
			<point x="456" y="690" type="line"/>
			<point x="394" y="690" type="line"/>
		</contour>
	</outline>
</glyph>
<glyph name="trademark" format="2">
	<advance width="779"/>
	<unicode hex="2122"/>
	<outline>
		<contour>
			<point x="86" y="644" type="line"/>
			<point x="318" y="644" type="line"/>
			<point x="318" y="690" type="line"/>
			<point x="86" y="690" type="line"/>
		</contour>
		<contour>
			<point x="176" y="290" type="line"/>
			<point x="228" y="290" type="line"/>
			<point x="228" y="690" type="line"/>
			<point x="176" y="690" type="line"/>
		</contour>
		<contour>
			<point x="372" y="290" type="line"/>
			<point x="420" y="290" type="line"/>
			<point x="420" y="690" type="line"/>
			<point x="372" y="690" type="line"/>
		</contour>
		<contour>
			<point x="402" y="690" type="line"/>
			<point x="496" y="369" type="line"/>
			<point x="524" y="369" type="line"/>
			<point x="524" y="426" type="line"/>
			<point x="452" y="690" type="line"/>
		</contour>
		<contour>
			<point x="518" y="426" type="line"/>
			<point x="518" y="369" type="line"/>
			<point x="546" y="369" type="line"/>
			<point x="640" y="690" type="line"/>
			<point x="590" y="690" type="line"/>
		</contour>
		<contour>
			<point x="622" y="290" type="line"/>
			<point x="670" y="290" type="line"/>
			<point x="670" y="690" type="line"/>
			<point x="622" y="690" type="line"/>
		</contour>
	</outline>
</glyph>
<glyph name="partialdiff" format="2">
	<advance width="540"/>
	<unicode hex="2202"/>
	<outline>
		<contour>
			<point x="84" y="200" type="curve" smooth="yes"/>
			<point x="84" y="71"/>
			<point x="168" y="-8"/>
			<point x="252" y="-8" type="curve" smooth="yes"/>
			<point x="412" y="-8"/>
			<point x="476" y="150"/>
			<point x="476" y="390" type="curve" smooth="yes"/>
			<point x="476" y="560"/>
			<point x="409" y="728"/>
			<point x="264" y="728" type="curve" smooth="yes"/>
			<point x="224" y="728"/>
			<point x="192" y="720"/>
			<point x="164" y="712" type="curve"/>
			<point x="176" y="658" type="line"/>
			<point x="196" y="664"/>
			<point x="224" y="673"/>
			<point x="254" y="673" type="curve" smooth="yes"/>
			<point x="364" y="673"/>
			<point x="416" y="542"/>
			<point x="416" y="390" type="curve" smooth="yes"/>
			<point x="416" y="196"/>
			<point x="388" y="47"/>
			<point x="262" y="47" type="curve" smooth="yes"/>
			<point x="206" y="47"/>
			<point x="144" y="93"/>
			<point x="144" y="200" type="curve" smooth="yes"/>
			<point x="144" y="336"/>
			<point x="210" y="425"/>
			<point x="294" y="425" type="curve" smooth="yes"/>
			<point x="344" y="425"/>
			<point x="394" y="380"/>
			<point x="424" y="320" type="curve"/>
			<point x="434" y="390" type="line"/>
			<point x="404" y="430"/>
			<point x="364" y="480"/>
			<point x="284" y="480" type="curve" smooth="yes"/>
			<point x="179" y="480"/>
			<point x="84" y="360"/>
		</contour>
	</outline>
</glyph>
<glyph name="summation" format="2">
	<advance width="528"/>
	<unicode hex="2211"/>
	<outline>
		<contour>
			<point x="80" y="-185" type="line"/>
			<point x="460" y="-185" type="line"/>
			<point x="460" y="-129" type="line"/>
			<point x="130" y="-129" type="line"/>
			<point x="80" y="-135" type="line"/>
		</contour>
		<contour>
			<point x="152" y="-135" type="line"/>
			<point x="332" y="260" type="line"/>
			<point x="260" y="260" type="line"/>
			<point x="80" y="-135" type="line"/>
		</contour>
		<contour>
			<point x="260" y="256" type="line"/>
			<point x="332" y="260" type="line"/>
			<point x="152" y="644" type="line"/>
			<point x="80" y="640" type="line"/>
		</contour>
		<contour>
			<point x="80" y="640" type="line"/>
			<point x="130" y="634" type="line"/>
			<point x="460" y="634" type="line"/>
			<point x="460" y="690" type="line"/>
			<point x="80" y="690" type="line"/>
		</contour>
	</outline>
</glyph>
<glyph name="divisionslash" format="2">
	<advance width="436"/>
	<unicode hex="2215"/>
	<outline>
		<contour>
			<point x="0" y="0" type="line"/>
			<point x="65" y="0" type="line"/>
			<point x="434" y="690" type="line"/>
			<point x="369" y="690" type="line"/>
		</contour>
	</outline>
</glyph>
<glyph name="approxequal" format="2">
	<advance width="500"/>
	<unicode hex="2248"/>
	<outline>
		<contour>
			<point x="94" y="133" type="line"/>
			<point x="120" y="153"/>
			<point x="159" y="173"/>
			<point x="189" y="173" type="curve" smooth="yes"/>
			<point x="234" y="173"/>
			<point x="261" y="133"/>
			<point x="316" y="133" type="curve" smooth="yes"/>
			<point x="376" y="133"/>
			<point x="406" y="152"/>
			<point x="444" y="182" type="curve"/>
			<point x="412" y="227" type="line"/>
			<point x="386" y="207"/>
			<point x="360" y="187"/>
			<point x="320" y="187" type="curve" smooth="yes"/>
			<point x="275" y="187"/>
			<point x="248" y="227"/>
			<point x="193" y="227" type="curve" smooth="yes"/>
			<point x="143" y="227"/>
			<point x="100" y="208"/>
			<point x="62" y="178" type="curve"/>
		</contour>
		<contour>
			<point x="94" y="353" type="line"/>
			<point x="120" y="373"/>
			<point x="159" y="393"/>
			<point x="189" y="393" type="curve" smooth="yes"/>
			<point x="234" y="393"/>
			<point x="261" y="353"/>
			<point x="316" y="353" type="curve" smooth="yes"/>
			<point x="376" y="353"/>
			<point x="406" y="372"/>
			<point x="444" y="402" type="curve"/>
			<point x="412" y="447" type="line"/>
			<point x="386" y="427"/>
			<point x="360" y="407"/>
			<point x="320" y="407" type="curve" smooth="yes"/>
			<point x="275" y="407"/>
			<point x="248" y="447"/>
			<point x="193" y="447" type="curve" smooth="yes"/>
			<point x="143" y="447"/>
			<point x="100" y="428"/>
			<point x="62" y="398" type="curve"/>
		</contour>
	</outline>
</glyph>
<glyph name="rightanglebracket-math" format="2">
	<advance width="240"/>
	<unicode hex="27E9"/>
	<outline>
		<contour>
			<point x="0" y="-185" type="line"/>
			<point x="48" y="-185" type="line"/>
			<point x="240" y="279" type="line"/>
			<point x="54" y="720" type="line"/>
			<point x="3" y="720" type="line"/>
			<point x="190" y="279" type="line"/>
		</contour>
	</outline>
</glyph>
<glyph name="I.alt" format="2">
	<advance width="282"/>
	<anchor x="141" y="690" name="top"/>
	<anchor x="141" y="0" name="bottom"/>
	<anchor x="110" y="0" name="ogonek"/>
	<outline>
		<contour>
			<point x="110" y="0" type="line"/>
			<point x="172" y="0" type="line"/>
			<point x="172" y="690" type="line"/>
			<point x="110" y="690" type="line"/>
		</contour>
	</outline>
</glyph>
<glyph name=".notdef" format="2">
	<advance width="600"/>
	<outline>
		<contour>
			<point x="127" y="-185" type="line"/>
			<point x="183" y="-185" type="line"/>
			<point x="183" y="690" type="line"/>
			<point x="127" y="690" type="line"/>
		</contour>
		<contour>
			<point x="153" y="-185" type="line"/>
			<point x="447" y="-185" type="line"/>
			<point x="447" y="-135" type="line"/>
			<point x="153" y="-135" type="line"/>
		</contour>
		<contour>
			<point x="153" y="640" type="line"/>
			<point x="447" y="640" type="line"/>
			<point x="447" y="690" type="line"/>
			<point x="153" y="690" type="line"/>
		</contour>
		<contour>
			<point x="417" y="-185" type="line"/>
			<point x="473" y="-185" type="line"/>
			<point x="473" y="690" type="line"/>
			<point x="417" y="690" type="line"/>
		</contour>
	</outline>
</glyph>
<glyph name="commaaccent.alt" format="2">
	<advance width="600"/>
	<anchor x="300" y="510" name="_top"/>
	<outline>
		<contour>
			<point x="258" y="667" type="curve" smooth="yes"/>
			<point x="258" y="640"/>
			<point x="276" y="621"/>
			<point x="300" y="621" type="curve" smooth="yes"/>
			<point x="324" y="621"/>
			<point x="342" y="640"/>
			<point x="342" y="664" type="curve" smooth="yes"/>
			<point x="342" y="685"/>
			<point x="330" y="700"/>
			<point x="312" y="705" type="curve"/>
			<point x="340" y="815" type="line"/>
			<point x="300" y="815" type="line"/>
			<point x="270" y="721" type="line" smooth="yes"/>
			<point x="264" y="703"/>
			<point x="258" y="685"/>
		</contour>
	</outline>
</glyph>
<glyph name="dieresis.cap" format="2">
	<advance width="600"/>
	<anchor x="300" y="690" name="_top"/>
	<outline>
		<contour>
			<point x="191" y="804" type="curve" smooth="yes"/>
			<point x="191" y="780"/>
			<point x="210" y="762"/>
			<point x="233" y="762" type="curve" smooth="yes"/>
			<point x="257" y="762"/>
			<point x="275" y="780"/>
			<point x="275" y="804" type="curve" smooth="yes"/>
			<point x="275" y="829"/>
			<point x="257" y="847"/>
			<point x="233" y="847" type="curve" smooth="yes"/>
			<point x="210" y="847"/>
			<point x="191" y="829"/>
		</contour>
		<contour>
			<point x="326" y="804" type="curve" smooth="yes"/>
			<point x="326" y="780"/>
			<point x="345" y="762"/>
			<point x="368" y="762" type="curve" smooth="yes"/>
			<point x="392" y="762"/>
			<point x="410" y="780"/>
			<point x="410" y="804" type="curve" smooth="yes"/>
			<point x="410" y="829"/>
			<point x="392" y="847"/>
			<point x="368" y="847" type="curve" smooth="yes"/>
			<point x="345" y="847"/>
			<point x="326" y="829"/>
		</contour>
	</outline>
</glyph>
<glyph name="grave.cap" format="2">
	<advance width="600"/>
	<anchor x="300" y="690" name="_top"/>
	<outline>
		<contour>
			<point x="147" y="885" type="line"/>
			<point x="276" y="750" type="line"/>
			<point x="334" y="750" type="line"/>
			<point x="229" y="885" type="line"/>
		</contour>
	</outline>
</glyph>
